<?xml version="1.0" encoding="utf-8"?>
<!-- Generator: Adobe Illustrator 15.1.0, SVG Export Plug-In . SVG Version: 6.00 Build 0)  -->
<!DOCTYPE svg PUBLIC "-//W3C//DTD SVG 1.1//EN" "http://www.w3.org/Graphics/SVG/1.1/DTD/svg11.dtd">
<svg version="1.1" id="Layer_1" xmlns="http://www.w3.org/2000/svg" xmlns:xlink="http://www.w3.org/1999/xlink" x="0px" y="0px"
	 width="894.125px" height="728.168px" viewBox="0 0 894.125 728.168" enable-background="new 0 0 894.125 728.168"
	 xml:space="preserve">
<g>
	<path d="M535.117,0H359.008l0,0l0,0v285.642L187.62,0H20.321l0,0l0,0v582.534l0,0h40.643h135.474l0,0l0,0v-252.48l172.148,252.48
		h156.953l172.148-252.48l0,0v252.48l0,0h176.116l0,0l0,0V0l0,0l0,0H706.513L535.117,285.642V0 M155.796,198.297v343.594H60.964
		V40.643h103.649L399.65,432.375V40.643h94.824v501.249H390.071L155.796,198.297z"/>
	<g>
		<polygon points="894.125,728.168 0,728.168 0,646.885 894.125,646.885 		"/>
	</g>
</g>
</svg>
